<mxfile host="app.diagrams.net" modified="2023-05-15T12:39:54.069Z" agent="Mozilla/5.0 (Windows NT 10.0; Win64; x64) AppleWebKit/537.36 (KHTML, like Gecko) Chrome/112.0.0.0 Safari/537.36 Edg/112.0.1722.64" etag="v1lxjT4_SbsqOh0zgCCi" version="21.2.9" type="device">
  <diagram name="Page-1" id="ZVnGuhvKV3e5-KHtyUUD">
    <mxGraphModel dx="1136" dy="661" grid="1" gridSize="10" guides="1" tooltips="1" connect="1" arrows="1" fold="1" page="1" pageScale="1" pageWidth="850" pageHeight="1100" math="0" shadow="0">
      <root>
        <mxCell id="0" />
        <mxCell id="1" parent="0" />
        <mxCell id="aij0rEnhn10r9QdsV2Cu-1" value="" style="rounded=1;whiteSpace=wrap;html=1;" vertex="1" parent="1">
          <mxGeometry x="470" y="60" width="200" height="60" as="geometry" />
        </mxCell>
        <mxCell id="aij0rEnhn10r9QdsV2Cu-2" value="" style="rounded=0;whiteSpace=wrap;html=1;" vertex="1" parent="1">
          <mxGeometry x="110" y="60" width="320" height="60" as="geometry" />
        </mxCell>
        <mxCell id="aij0rEnhn10r9QdsV2Cu-3" value="" style="whiteSpace=wrap;html=1;aspect=fixed;" vertex="1" parent="1">
          <mxGeometry x="110" y="140" width="320" height="320" as="geometry" />
        </mxCell>
        <mxCell id="aij0rEnhn10r9QdsV2Cu-4" value="" style="shape=parallelogram;perimeter=parallelogramPerimeter;whiteSpace=wrap;html=1;fixedSize=1;" vertex="1" parent="1">
          <mxGeometry x="470" y="140" width="200" height="320" as="geometry" />
        </mxCell>
        <mxCell id="aij0rEnhn10r9QdsV2Cu-5" value="Page 1" style="text;html=1;strokeColor=none;fillColor=none;align=center;verticalAlign=middle;whiteSpace=wrap;rounded=0;" vertex="1" parent="1">
          <mxGeometry x="385" y="10" width="60" height="30" as="geometry" />
        </mxCell>
        <mxCell id="aij0rEnhn10r9QdsV2Cu-6" value="Page 2" style="text;html=1;strokeColor=none;fillColor=none;align=center;verticalAlign=middle;whiteSpace=wrap;rounded=0;" vertex="1" parent="1">
          <mxGeometry x="385" y="500" width="60" height="30" as="geometry" />
        </mxCell>
        <mxCell id="aij0rEnhn10r9QdsV2Cu-7" value="" style="rounded=1;whiteSpace=wrap;html=1;" vertex="1" parent="1">
          <mxGeometry x="298" y="540" width="235" height="60" as="geometry" />
        </mxCell>
        <mxCell id="aij0rEnhn10r9QdsV2Cu-8" value="" style="ellipse;whiteSpace=wrap;html=1;aspect=fixed;" vertex="1" parent="1">
          <mxGeometry x="150" y="660" width="80" height="80" as="geometry" />
        </mxCell>
        <mxCell id="aij0rEnhn10r9QdsV2Cu-9" value="" style="ellipse;whiteSpace=wrap;html=1;aspect=fixed;" vertex="1" parent="1">
          <mxGeometry x="280" y="660" width="80" height="80" as="geometry" />
        </mxCell>
        <mxCell id="aij0rEnhn10r9QdsV2Cu-10" value="" style="ellipse;whiteSpace=wrap;html=1;aspect=fixed;" vertex="1" parent="1">
          <mxGeometry x="390" y="660" width="80" height="80" as="geometry" />
        </mxCell>
        <mxCell id="aij0rEnhn10r9QdsV2Cu-11" value="" style="ellipse;whiteSpace=wrap;html=1;aspect=fixed;" vertex="1" parent="1">
          <mxGeometry x="510" y="660" width="80" height="80" as="geometry" />
        </mxCell>
        <mxCell id="aij0rEnhn10r9QdsV2Cu-12" value="" style="ellipse;whiteSpace=wrap;html=1;aspect=fixed;" vertex="1" parent="1">
          <mxGeometry x="630" y="660" width="80" height="80" as="geometry" />
        </mxCell>
        <mxCell id="aij0rEnhn10r9QdsV2Cu-13" value="Page 3" style="text;html=1;strokeColor=none;fillColor=none;align=center;verticalAlign=middle;whiteSpace=wrap;rounded=0;" vertex="1" parent="1">
          <mxGeometry x="385" y="760" width="60" height="30" as="geometry" />
        </mxCell>
        <mxCell id="aij0rEnhn10r9QdsV2Cu-14" value="" style="rounded=1;whiteSpace=wrap;html=1;" vertex="1" parent="1">
          <mxGeometry x="298" y="800" width="235" height="60" as="geometry" />
        </mxCell>
        <mxCell id="aij0rEnhn10r9QdsV2Cu-15" value="" style="triangle;whiteSpace=wrap;html=1;" vertex="1" parent="1">
          <mxGeometry x="385" y="880" width="120" height="140" as="geometry" />
        </mxCell>
        <mxCell id="aij0rEnhn10r9QdsV2Cu-17" value="" style="image;html=1;image=img/lib/clip_art/computers/Data_Filtering_128x128.png" vertex="1" parent="1">
          <mxGeometry x="120" y="140" width="30" height="50" as="geometry" />
        </mxCell>
        <mxCell id="aij0rEnhn10r9QdsV2Cu-18" value="Filtering rule" style="sketch=0;outlineConnect=0;fontColor=#232F3E;gradientColor=none;strokeColor=#232F3E;fillColor=#ffffff;dashed=0;verticalLabelPosition=bottom;verticalAlign=top;align=center;html=1;fontSize=12;fontStyle=0;aspect=fixed;shape=mxgraph.aws4.resourceIcon;resIcon=mxgraph.aws4.filtering_rule;" vertex="1" parent="1">
          <mxGeometry x="380" y="145" width="40" height="40" as="geometry" />
        </mxCell>
      </root>
    </mxGraphModel>
  </diagram>
</mxfile>
